<svg 
 xmlns="http://www.w3.org/2000/svg"
 xmlns:xlink="http://www.w3.org/1999/xlink"
 width="51.5px" height="51.5px">
<path fill-rule="evenodd"  stroke="rgb(255, 255, 255)" stroke-width="1px" stroke-linecap="butt" stroke-linejoin="miter" opacity="1" fill="#d5a353"
 d="M25.500,0.500 C39.307,0.500 50.500,11.693 50.500,25.500 C50.500,39.307 39.307,50.500 25.500,50.500 C11.693,50.500 0.500,39.307 0.500,25.500 C0.500,11.693 11.693,0.500 25.500,0.500 Z"/>
<path fill-rule="evenodd"  fill="rgb(255, 255, 255)"
 d="M27.485,34.492 L23.487,34.492 L23.487,25.995 L21.489,25.995 L21.489,22.722 L23.487,22.722 L23.487,20.758 C23.487,18.088 24.615,16.499 27.819,16.499 L30.488,16.499 L30.488,19.773 L28.821,19.773 C27.573,19.773 27.490,20.231 27.490,21.083 L27.485,22.722 L30.507,22.722 L30.153,25.995 L27.485,25.995 L27.485,34.492 Z"/>
</svg>