<svg 
 xmlns="http://www.w3.org/2000/svg"
 xmlns:xlink="http://www.w3.org/1999/xlink"
 width="51.5px" height="51.5px">
<path fill-rule="evenodd"  stroke="rgb(255, 255, 255)" stroke-width="1px" stroke-linecap="butt" stroke-linejoin="miter" opacity="1" fill="#d5a353"
 d="M25.500,0.500 C39.307,0.500 50.500,11.693 50.500,25.500 C50.500,39.307 39.307,50.500 25.500,50.500 C11.693,50.500 0.500,39.307 0.500,25.500 C0.500,11.693 11.693,0.500 25.500,0.500 Z"/>
<path fill-rule="evenodd"  fill="rgb(255, 255, 255)"
 d="M36.850,26.569 L36.850,29.180 L34.922,29.180 L34.922,26.569 L32.271,26.569 L32.271,24.671 L34.922,24.671 L34.922,22.060 L36.850,22.060 L36.850,24.671 L39.500,24.671 L39.500,26.569 L36.850,26.569 ZM23.115,33.499 C18.910,33.499 15.501,30.141 15.501,26.000 C15.501,21.858 18.910,18.500 23.115,18.500 C25.095,18.500 26.897,19.246 28.252,20.465 L26.007,22.630 C25.227,21.979 24.218,21.586 23.115,21.586 C20.640,21.586 18.633,23.562 18.633,26.000 C18.633,28.438 20.640,30.413 23.115,30.413 C25.030,30.413 26.664,29.231 27.305,27.566 L23.019,27.566 L23.019,24.433 L27.305,24.433 L30.537,24.433 L30.562,24.433 C30.672,24.939 30.729,25.462 30.729,26.000 C30.729,30.141 27.320,33.499 23.115,33.499 Z"/>
</svg>