<svg 
 xmlns="http://www.w3.org/2000/svg"
 xmlns:xlink="http://www.w3.org/1999/xlink"
 width="51.5px" height="51.5px">
<path fill-rule="evenodd"  stroke="rgb(255, 255, 255)" stroke-width="1px" stroke-linecap="butt" stroke-linejoin="miter" opacity="1" fill="#d5a353"
 d="M25.500,0.500 C39.307,0.500 50.500,11.693 50.500,25.500 C50.500,39.307 39.307,50.500 25.500,50.500 C11.693,50.500 0.500,39.307 0.500,25.500 C0.500,11.693 11.693,0.500 25.500,0.500 Z"/>
<path fill-rule="evenodd"  fill="rgb(255, 255, 255)"
 d="M31.078,31.507 L31.078,26.095 C31.078,24.734 30.581,23.807 29.339,23.807 C28.393,23.807 27.828,24.432 27.582,25.037 C27.489,25.252 27.468,25.555 27.468,25.857 L27.468,31.507 L24.039,31.507 C24.039,31.507 24.084,22.338 24.039,21.390 L27.468,21.390 L27.468,22.823 C27.461,22.834 27.452,22.846 27.445,22.856 L27.468,22.856 L27.468,22.823 C27.923,22.134 28.736,21.152 30.558,21.152 C32.814,21.152 34.507,22.597 34.507,25.705 L34.507,31.507 L31.078,31.507 ZM20.426,20.008 L20.403,20.008 C19.252,20.008 18.509,19.231 18.509,18.259 C18.509,17.267 19.275,16.510 20.448,16.510 C21.622,16.510 22.344,17.267 22.365,18.259 C22.365,19.231 21.622,20.008 20.426,20.008 ZM22.140,31.507 L18.712,31.507 L18.712,21.390 L22.140,21.390 L22.140,31.507 Z"/>
</svg>