<?xml version="1.0" encoding="utf-8"?>
<!-- Generator: Adobe Illustrator 21.0.0, SVG Export Plug-In . SVG Version: 6.00 Build 0)  -->
<svg version="1.1" id="Layer_1" xmlns="http://www.w3.org/2000/svg" xmlns:xlink="http://www.w3.org/1999/xlink" x="0px" y="0px"
	 viewBox="0 0 512 512" style="enable-background:new 0 0 512 512;" xml:space="preserve">
<style type="text/css">
	.st0{fill:#D5A353;}
	.st1{fill:#FFFFFF;}
</style>
<g>
	<path class="st0" d="M511.5,256c0-141.4-114.6-256-256-256C114.1,0-0.5,114.6-0.5,256c0,141.4,114.6,256,256,256
		C396.9,512,511.5,397.4,511.5,256z"/>
	<path class="st1" d="M192.1,217.8c0-8.3,2.7-16.7,8-25.3c5.3-8.5,13.1-15.6,23.4-21.2c10.2-5.6,22.2-8.4,35.8-8.4
		c12.7,0,23.9,2.3,33.6,7c9.7,4.7,17.2,11,22.5,19.1c5.3,8,7.9,16.8,7.9,26.2c0,7.4-1.5,14-4.5,19.6c-3,5.6-6.6,10.4-10.8,14.5
		c-4.2,4.1-11.6,10.9-22.4,20.5c-3,2.7-5.4,5.1-7.2,7.2c-1.8,2.1-3.1,3.9-4,5.6c-0.9,1.7-1.6,3.4-2,5.1c-0.5,1.7-1.2,4.7-2.2,9
		c-1.7,9.1-6.9,13.6-15.6,13.6c-4.5,0-8.4-1.5-11.5-4.5c-3.1-3-4.7-7.4-4.7-13.3c0-7.3,1.1-13.7,3.4-19.1c2.3-5.4,5.3-10.1,9.1-14.2
		c3.8-4.1,8.8-8.9,15.2-14.5c5.6-4.9,9.6-8.6,12.1-11.1c2.5-2.5,4.6-5.3,6.3-8.3c1.7-3.1,2.6-6.4,2.6-10c0-7-2.6-12.9-7.8-17.7
		c-5.2-4.8-11.9-7.2-20.1-7.2c-9.6,0-16.7,2.4-21.3,7.3c-4.5,4.9-8.4,12-11.5,21.5c-3,9.9-8.6,14.8-16.9,14.8c-4.9,0-9-1.7-12.4-5.2
		C193.8,225.6,192.1,221.9,192.1,217.8z M256.1,361.7c-5.3,0-10-1.7-14-5.2c-4-3.5-6-8.3-6-14.5c0-5.5,1.9-10.1,5.8-13.9
		c3.8-3.8,8.6-5.6,14.2-5.6c5.5,0,10.1,1.9,13.9,5.6c3.8,3.8,5.6,8.4,5.6,13.9c0,6.1-2,10.9-5.9,14.4
		C265.8,359.9,261.3,361.7,256.1,361.7z"/>
</g>
</svg>
