<svg 
 xmlns="http://www.w3.org/2000/svg"
 xmlns:xlink="http://www.w3.org/1999/xlink"
 width="51.5px" height="51.5px">
<path fill-rule="evenodd"  stroke="rgb(255, 255, 255)" stroke-width="1px" stroke-linecap="butt" stroke-linejoin="miter" opacity="1" fill="#d5a353"
 d="M25.500,0.500 C39.307,0.500 50.500,11.693 50.500,25.500 C50.500,39.307 39.307,50.500 25.500,50.500 C11.693,50.500 0.500,39.307 0.500,25.500 C0.500,11.693 11.693,0.500 25.500,0.500 Z"/>
<path fill-rule="evenodd"  fill="rgb(255, 255, 255)"
 d="M33.500,20.157 C32.875,20.439 32.202,20.629 31.497,20.714 C32.217,20.277 32.770,19.585 33.030,18.760 C32.355,19.164 31.610,19.459 30.815,19.616 C30.179,18.930 29.273,18.502 28.270,18.502 C26.344,18.502 24.782,20.082 24.782,22.036 C24.782,22.312 24.813,22.582 24.873,22.840 C21.975,22.693 19.405,21.286 17.685,19.148 C17.385,19.669 17.214,20.277 17.214,20.925 C17.214,22.150 17.830,23.233 18.765,23.866 C18.193,23.847 17.655,23.688 17.185,23.423 C17.185,23.438 17.185,23.453 17.185,23.467 C17.185,25.181 18.387,26.608 19.983,26.934 C19.690,27.014 19.383,27.058 19.064,27.058 C18.840,27.058 18.621,27.035 18.408,26.994 C18.852,28.397 20.140,29.420 21.666,29.449 C20.472,30.396 18.968,30.961 17.334,30.961 C17.053,30.961 16.775,30.944 16.502,30.912 C18.045,31.914 19.878,32.500 21.848,32.500 C28.262,32.500 31.770,27.114 31.770,22.445 C31.770,22.291 31.766,22.140 31.760,21.988 C32.441,21.489 33.033,20.867 33.500,20.159 L33.500,20.157 Z"/>
</svg>